<svg width="261" height="275" viewBox="0 0 261 275" fill="none" xmlns="http://www.w3.org/2000/svg">
<path d="M240.71 159.813C240.71 231.811 186.426 246 119.955 246C53.485 246 0 231.811 0 159.813C0 87.8161 23.0963 0 89.5666 0C156.037 0 240.71 87.8161 240.71 159.813Z" fill="#FFF8CF"/>
<g clip-path="url(#clip0_4_1937)">
<path d="M235.213 90.1203C235.815 89.2559 236.638 89.1287 237.543 88.9698C237.689 88.9444 237.66 88.7219 237.543 88.6774C236.545 88.3151 235.529 89.1287 235.032 89.9996C234.956 90.1267 235.137 90.2284 235.213 90.114V90.1203Z" fill="#303030"/>
<path d="M235.044 90.1457C237.818 89.3639 240.469 90.756 241.14 93.985C241.742 96.8771 240.796 100.265 237.806 100.748C237.619 100.78 237.672 101.091 237.847 101.091C241.123 101.174 242.151 96.6864 241.526 93.8642C240.854 90.8386 237.765 88.2643 234.951 89.9042C234.828 89.9741 234.916 90.1775 235.044 90.1394V90.1457Z" fill="#303030"/>
<path d="M231.593 90.6098C231.593 90.6098 231.593 88.8236 233.222 88.4486C234.851 88.0736 235.453 89.8597 235.453 89.8597C235.453 89.8597 237.683 89.205 239.739 93.3366C241.794 97.4682 239.482 101.504 237.596 102.35C235.71 103.195 233.485 101.695 233.485 101.695L231.599 90.6161L231.593 90.6098Z" fill="#303030"/>
<path d="M231.517 111.096C237.479 113.022 237.059 101.104 235.4 97.9513C235.301 97.7606 234.98 97.8877 235.062 98.1102C236.446 102 237.45 110.975 231.552 110.861C231.424 110.861 231.406 111.058 231.523 111.096H231.517Z" fill="#303030"/>
<path d="M252.066 176.782C252.066 176.782 250.606 178.015 248.807 179.687C248.807 179.687 249.485 180.628 250.513 182.865C251.178 184.308 252.229 183.495 254.004 182.992C255.056 182.694 256.218 181.53 255.943 180.736C255.634 179.833 253.864 179.045 252.066 176.789V176.782Z" fill="url(#paint0_linear_4_1937)"/>
<path d="M217.473 253.719C217.9 255.67 218.624 257.151 218.046 258.81C217.427 260.584 212.142 261.213 212.101 262.256C212.049 263.584 217.158 262.637 219.243 262.637C221.327 262.637 221.555 262.955 221.865 262.306C222.32 261.353 221.929 260.139 221.07 257.698C220.708 256.668 220.416 255.226 220.37 253.115L217.479 253.719H217.473Z" fill="url(#paint1_linear_4_1937)"/>
<path d="M221.865 262.306C222.32 261.353 221.929 260.139 221.071 257.698C220.72 256.7 220.44 255.327 220.376 253.331L217.719 254.539L217.765 254.895C217.987 255.715 218.198 256.465 218.244 257.202C218.589 257.221 219.307 257.342 220.037 257.012C220.037 257.012 220.16 257.781 220.469 258.575C220.784 259.395 221.719 260.387 221.357 261.556C221.111 262.351 218.764 261.83 217.637 262.02C217.275 262.084 217.176 262.383 217.205 262.764C217.987 262.694 218.711 262.637 219.237 262.637C221.327 262.637 221.549 262.955 221.859 262.306H221.865Z" fill="#D37A85"/>
<path d="M222.384 262.376H217.1C216.884 262.376 216.714 262.567 216.72 262.802C216.72 263.037 216.907 263.228 217.123 263.228H222.408C222.624 263.228 222.793 263.037 222.787 262.802C222.787 262.567 222.6 262.376 222.384 262.376Z" fill="#363344"/>
<path d="M211.494 262.523C211.453 260.927 214.513 260.571 216.603 259.395C217.024 259.325 218.49 260.603 218.554 263.228H212.551C211.441 263.228 211.488 262.516 211.488 262.516L211.494 262.523Z" fill="#363344"/>
<path d="M226.91 253.401C227.044 255.391 227.546 256.98 226.729 258.505C225.853 260.139 220.685 261.213 220.644 262.256C220.592 263.584 225.701 262.637 227.786 262.637C229.87 262.637 230.098 262.955 230.408 262.306C230.863 261.353 230.384 260.482 229.888 257.933C229.678 256.859 229.602 255.391 229.865 253.306L226.91 253.401Z" fill="url(#paint2_linear_4_1937)"/>
<path d="M230.413 262.306C230.869 261.353 230.39 260.482 229.894 257.933C229.724 257.069 229.643 255.95 229.754 254.463L227.032 254.622C227.097 255.156 227.155 255.658 227.178 256.147C227.541 256.268 228.253 256.459 229.03 256.414C229.03 256.414 229.041 257.832 229.269 259.185C229.497 260.539 229.812 261.811 228.183 261.957C226.554 262.097 224.924 262.027 224.924 262.027L225.269 262.815C226.232 262.732 227.149 262.643 227.786 262.643C229.876 262.643 230.098 262.961 230.408 262.313L230.413 262.306Z" fill="#D37A85"/>
<path d="M209.287 105.21C210.005 107.079 210.752 108.7 210.42 110.797C210.18 112.304 209.222 113.454 209.112 115.05C208.995 116.658 209.462 118.139 210.682 119.073C210.863 119.213 211.05 118.914 210.91 118.749C208.224 115.692 210.846 113.226 211.033 109.984C211.132 108.293 210.291 106.494 209.509 105.102C209.439 104.981 209.234 105.064 209.287 105.204V105.21Z" fill="#303030"/>
<path d="M210.682 107.982C210.682 107.982 206.998 105.35 207.512 99.3433C208.025 93.3366 211.027 90.5144 215.05 88.544C219.079 86.5735 222.46 86.8786 223.92 88.474C223.92 88.474 227.435 85.9633 231.377 90.0885C233.316 92.1162 235.488 95.9173 235.955 99.4895C236.586 104.327 235.751 108.96 232.533 110.085C232.533 110.085 232.34 116.493 224.562 117.738C221.508 118.228 210.682 107.975 210.682 107.975V107.982Z" fill="#212121"/>
<path d="M229.491 107.416L225.824 107.034L222.63 117.325C223.365 117.656 223.99 117.815 224.446 117.738C231.967 116.435 232.954 107.511 229.497 107.416H229.491Z" fill="#212121"/>
<path d="M210.209 127.038C207.079 128.932 205.684 133.267 202.817 138.479C199.944 143.685 198.642 144.632 196.901 147.098C195.161 149.558 193.684 159.271 199.383 157.898C206.215 156.251 210.215 148.808 210.735 147.194C211.255 145.585 210.215 127.044 210.215 127.044L210.209 127.038Z" fill="#FF2400"/>
<path d="M242.577 156.658C245.275 163.288 247.78 169.631 252.066 176.782L248.872 179.763C248.872 179.763 239.967 169.256 236.136 160.072L242.577 156.665V156.658Z" fill="url(#paint3_linear_4_1937)"/>
<path d="M205.52 169.822C205.52 169.822 202.431 185.923 205.439 209.409C208.037 229.699 216.644 256.077 216.644 256.077C216.644 256.077 219.418 256.478 222.022 254.584C222.022 254.584 221.602 239.1 220.586 233.036C219.57 226.972 217.935 222.618 217.333 219.211C216.726 215.804 220.44 192.832 220.44 192.832C220.44 192.832 220.779 210.261 221.561 221.054C222.25 230.519 224.726 247.382 225.602 254.768C225.602 254.768 228.352 256.948 231.517 254.768C231.517 254.768 232.837 241.127 233.006 233.741C233.175 226.355 232.375 222.185 231.71 216.312C231.044 210.439 236.486 192.54 237.321 184.016C238.04 176.681 235.686 168.43 236.142 169.619L205.52 169.809V169.822Z" fill="#E7DEE8"/>
<path d="M205.439 209.416C208.037 229.705 216.644 256.084 216.644 256.084C216.644 256.084 219.488 257.622 222.022 254.59C222.022 254.59 221.602 239.106 220.586 233.042C219.57 226.978 217.935 222.624 217.333 219.217C216.726 215.81 220.44 192.838 220.44 192.838L220.136 187.537L222.273 186.024L218.863 185.268L218.781 174.659L208.452 169.809L205.526 169.828C205.526 169.828 202.437 185.929 205.444 209.416H205.439Z" fill="#C5BBC7"/>
<path d="M232.335 105.992C232.335 105.992 225.917 106.062 221.736 102.903C217.433 99.6484 216.236 93.4765 216.236 93.4765C216.236 93.4765 211.979 94.1057 210.093 97.8432C207.033 103.907 211.722 110.079 211.722 110.079L228.778 111.147L229.368 107.854C230.886 107.473 231.716 106.78 232.34 105.998L232.335 105.992Z" fill="#212121"/>
<path d="M226.46 113.556C226.46 113.556 218.793 116.2 217.182 119.111C220.481 122.004 216.13 124.94 213.52 125.792C213.52 125.792 213.485 132.485 219.611 132.752C225.736 133.019 229.357 125.601 229.357 125.601C226.746 124.94 224.948 123.173 224.452 121.209C223.669 118.126 225.263 115.698 226.466 113.556H226.46Z" fill="url(#paint4_linear_4_1937)"/>
<path d="M217.246 123.561C218.297 125.582 221.853 130.991 228.381 127.228C229.018 126.281 229.351 125.601 229.351 125.601C226.741 124.94 224.942 123.173 224.446 121.209C223.663 118.126 225.257 115.698 226.46 113.556C226.46 113.556 218.793 116.2 217.182 119.111C218.992 120.701 218.495 122.302 217.246 123.567V123.561Z" fill="#D37A85"/>
<path d="M228.872 107.835C227.774 107.702 226.957 110.047 226.957 110.047C225.176 110.461 225.8 106.068 225.8 106.068C217.03 102.801 215.663 95.8855 215.663 95.8855C211.441 96.6673 210.817 101.86 210.817 101.86C208.201 115.418 214.495 121.018 216.574 121.362C218.612 121.692 223.295 119.722 226.449 114.033C228.195 114.484 229.812 113.372 230.478 111.687C231.114 110.073 230.787 107.988 228.872 107.848V107.835Z" fill="url(#paint5_linear_4_1937)"/>
<path d="M213.222 114.776C213.222 114.776 216.066 115.476 219.932 114.471C219.932 114.471 219.132 117.446 216.551 117.516C214.279 117.58 213.222 114.776 213.222 114.776Z" fill="#4B3C59"/>
<path d="M214.414 115.329C214.414 115.329 216.557 115.704 219.266 114.999C219.266 114.999 218.706 116.728 216.644 116.874C214.951 116.995 214.414 115.329 214.414 115.329Z" fill="#FFF4E9"/>
<path d="M215.815 108.452C216.218 107.13 216.049 105.592 215.26 104.301C215.815 104.835 216.183 105.541 216.393 106.291C216.592 107.034 216.673 107.861 216.475 108.624C216.119 110.06 215.138 111.153 213.941 111.948C214.379 112.634 215.05 113.27 215.885 113.613C214.396 113.423 213.549 112.685 212.627 111.668C214.081 110.975 215.377 109.997 215.815 108.452Z" fill="#D37A85"/>
<path d="M218.367 102.986C218.233 103.786 219.36 103.265 221.462 104.123C222.735 104.644 223.786 105.617 224.002 105.445C224.212 105.274 223.616 104.403 221.777 103.373C220.294 102.541 218.466 102.401 218.367 102.986V102.986Z" fill="#212121"/>
<path d="M214.373 102.801C214.449 103.545 213.427 103.138 212.09 103.634C211.132 103.99 210.449 104.638 210.25 104.511C210.052 104.384 210.437 103.577 211.634 102.922C212.738 102.312 214.32 102.337 214.373 102.801Z" fill="#212121"/>
<path d="M219.231 107.149C219.179 107.873 219.57 108.49 220.101 108.535C220.633 108.579 221.106 108.032 221.158 107.308C221.211 106.583 220.819 105.967 220.288 105.922C219.757 105.878 219.284 106.424 219.231 107.149Z" fill="#4B3C59"/>
<path d="M222.618 108.185C222.449 107.085 221.66 106.049 220.335 105.757C219.564 105.573 218.822 106.507 218.939 107.073C218.939 107.073 219.529 106.456 220.335 106.666C221.141 106.876 222.624 108.179 222.624 108.179L222.618 108.185Z" fill="#4B3C59"/>
<path d="M221.689 106.685C221.689 106.685 222.6 106.183 222.665 106.291C222.729 106.399 221.999 107.073 221.999 107.073L221.689 106.685V106.685Z" fill="#4B3C59"/>
<path d="M222.075 107.168C222.075 107.168 223.138 106.952 223.167 107.034C223.196 107.117 222.285 107.632 222.285 107.632L222.075 107.168Z" fill="#4B3C59"/>
<path d="M211.295 106.78C211.249 107.473 211.587 108.071 212.055 108.115C212.522 108.153 212.936 107.626 212.983 106.926C213.03 106.234 212.691 105.636 212.224 105.592C211.757 105.553 211.342 106.081 211.295 106.78Z" fill="#4B3C59"/>
<path d="M214.057 107.74C214.081 106.71 213.293 105.534 212.282 105.433C211.476 105.299 210.834 106.399 210.933 106.952C210.933 106.952 211.447 106.157 212.276 106.31C213.205 106.481 214.057 107.74 214.057 107.74Z" fill="#4B3C59"/>
<path d="M211.57 106.081C211.57 106.081 210.799 105.439 210.723 105.534C210.647 105.63 211.231 106.412 211.231 106.412L211.57 106.081Z" fill="#4B3C59"/>
<path d="M211.149 106.494C211.149 106.494 210.203 106.106 210.163 106.183C210.128 106.259 210.893 106.914 210.893 106.914L211.149 106.494V106.494Z" fill="#4B3C59"/>
<path d="M229.543 111.401C229.181 112.329 228.44 112.876 227.891 112.622C227.342 112.367 227.19 111.408 227.552 110.48C227.914 109.552 228.656 109.005 229.205 109.259C229.754 109.513 229.905 110.473 229.543 111.401Z" fill="#D27A84"/>
<path d="M252.79 180.73C251.418 180.374 249.853 179.56 249.134 179.058C248.416 178.562 245.578 174.888 243.622 171.621C241.666 168.354 239.535 163.192 239.535 163.192C242.32 161.584 243.365 158.597 243.365 158.597L243.33 158.489C243.149 158.038 242.962 157.586 242.781 157.135L237.9 159.144L236.154 160.072C239.791 168.805 248.025 178.734 248.825 179.687C248.825 179.687 249.502 180.628 250.53 182.865C251.196 184.308 252.247 183.495 254.022 182.992C254.162 182.954 254.302 182.897 254.442 182.833L252.807 180.736L252.79 180.73Z" fill="#D37A85"/>
<path d="M233.269 126.923C237.356 128.627 238.921 146.247 244.013 157.612C244.013 157.612 242.057 161.444 236.311 162.728C236.311 162.728 231.611 155.056 230.046 145.821C228.691 137.818 233.263 126.93 233.263 126.93L233.269 126.923Z" fill="#FF2400"/>
<path d="M187.243 125.786C189.246 127.584 191.593 133.833 193.684 138.288C195.774 142.738 197.293 144.537 199.383 147.95C201.474 151.357 201.952 155.997 199.599 157.421C197.252 158.838 194.204 156.944 191.418 151.077C188.633 145.204 187.284 134.125 185.807 131.188L187.243 125.792V125.786Z" fill="url(#paint6_linear_4_1937)"/>
<path d="M237.304 174.373C236.043 164.712 231.097 157.465 231.003 153.067C230.898 147.956 232.364 145.903 233.438 139.572C234.092 135.74 235.961 128.474 233.263 126.93C230.133 125.131 229.216 125.366 229.216 125.366C229.216 125.366 225.479 131.761 219.605 131.614C213.73 131.474 213.865 125.48 213.865 125.48C213.865 125.48 211.78 126.11 210.209 127.044C210.209 127.044 207.097 135.422 207.208 139.998C207.319 144.613 210.928 150.473 210.992 153.067C211.12 158.463 207.599 158.088 204.598 174.373C209.193 179.204 232.562 177.64 237.298 174.373H237.304Z" fill="#FF2400"/>
<path d="M224.195 88.7346C222.665 85.8107 220.072 85.4421 217.304 86.5163C214.455 87.6286 210.723 90.1013 209.754 93.3748C209.69 93.5909 210.011 93.7498 210.098 93.5337C211.114 90.9784 213.193 89.4466 215.365 88.1054C218.396 86.2303 221.532 85.5056 223.914 88.919C224.037 89.097 224.306 88.9444 224.2 88.741L224.195 88.7346Z" fill="#303030"/>
<path d="M230.933 262.376H225.649C225.433 262.376 225.263 262.567 225.269 262.802C225.269 263.037 225.456 263.228 225.672 263.228H230.957C231.173 263.228 231.342 263.037 231.336 262.802C231.336 262.567 231.149 262.376 230.933 262.376Z" fill="#363344"/>
<path d="M220.043 262.523C220.002 260.927 223.062 260.571 225.152 259.395C225.573 259.325 227.044 260.603 227.103 263.228H221.1C219.99 263.228 220.037 262.516 220.037 262.516L220.043 262.523Z" fill="#363344"/>
<path d="M247.476 185.503L248.93 180.138C249.029 179.776 249.38 179.566 249.718 179.674L260.55 183.1C260.883 183.209 261.076 183.59 260.977 183.959L259.523 189.33C259.423 189.692 259.073 189.902 258.734 189.794L247.902 186.368C247.569 186.26 247.377 185.878 247.476 185.509V185.503Z" fill="#C5BBC7"/>
<path d="M247.75 185.433L249.123 180.361C249.204 180.056 249.496 179.884 249.777 179.973L260.334 183.317C260.615 183.406 260.772 183.723 260.69 184.028L259.318 189.101C259.236 189.406 258.945 189.578 258.664 189.489L248.107 186.145C247.826 186.056 247.669 185.738 247.75 185.433Z" fill="#ECEAED"/>
<path d="M248.755 186.101L250.302 180.386L259.698 183.361L258.15 189.069L248.755 186.101Z" fill="#363344"/>
<path d="M259.698 183.361L250.302 180.393L248.755 186.107L258.15 189.075L259.698 183.361ZM248.994 185.98L250.437 180.641L259.453 183.488L258.01 188.827L248.994 185.98Z" fill="#2D2C3A"/>
<path d="M259.359 186.717C259.213 186.673 259.126 186.501 259.172 186.342C259.213 186.183 259.371 186.088 259.517 186.139C259.663 186.183 259.75 186.355 259.704 186.514C259.663 186.673 259.505 186.768 259.359 186.717Z" fill="#2D2C3A"/>
<path d="M254.699 186.685C255.394 186.908 255.266 189.4 254.063 189.107C253.514 188.974 253.572 188.402 253.66 187.817C253.771 187.054 254.08 186.488 254.699 186.685Z" fill="#FFB7A7"/>
<path d="M251.383 186.062C251.99 186.279 251.71 188.643 250.688 188.211C250.221 188.014 250.162 187.601 250.267 187.086C250.407 186.406 250.84 185.865 251.383 186.062V186.062Z" fill="#FFB7A7"/>
<path d="M252.901 186.266C253.602 186.463 253.537 189.196 252.34 188.853C251.797 188.7 251.832 188.16 251.902 187.575C251.996 186.813 252.276 186.082 252.901 186.26V186.266Z" fill="#FFB7A7"/>
<path d="M253.835 178.473C254.997 178.969 255.908 179.789 256.299 180.857C256.691 181.925 257.228 182.967 256.574 183.278C255.785 183.653 255.301 182.103 254.618 181.263C254.366 180.952 252.761 181.162 252.241 180.094C251.721 179.026 252.609 177.952 253.841 178.473H253.835Z" fill="url(#paint7_linear_4_1937)"/>
<path d="M233.035 141.689C233.035 141.689 227.827 147.378 217.649 147.098C209.952 146.882 207.646 142.897 207.646 142.897C208.633 146.838 210.945 150.988 210.992 153.061C211.12 158.457 207.599 158.082 204.598 174.367C209.193 179.198 232.562 177.634 237.298 174.367C236.037 164.705 231.091 157.459 230.997 153.061C230.91 148.567 232.025 146.437 233.029 141.689H233.035Z" fill="#CC1C05"/>
<path d="M219.097 91.4234C220.381 96.6101 224.241 100.742 229.053 101.968C229.135 101.988 229.17 101.854 229.088 101.829C224.352 100.322 220.825 96.4703 219.447 91.3217C219.383 91.0801 219.033 91.1818 219.097 91.4297V91.4234Z" fill="#303030"/>
<path d="M225.304 97.0233C227.377 99.2988 230.53 100.983 233.386 101.702C233.532 101.74 233.584 101.517 233.444 101.466C231.926 100.869 230.425 100.297 229.006 99.4577C227.733 98.7077 226.606 97.7479 225.397 96.8961C225.322 96.8453 225.246 96.9597 225.304 97.0296V97.0233Z" fill="#303030"/>
<path d="M225.672 92.237C226.781 94.0994 228.574 95.6185 230.589 96.0889C230.653 96.1016 230.67 96.0126 230.618 95.9872C228.679 95.1037 227.108 93.9405 225.812 92.1289C225.754 92.0463 225.625 92.1543 225.678 92.2433L225.672 92.237Z" fill="#303030"/>
<path d="M225.438 89.6182C227.47 89.9932 228.843 91.0166 230.279 92.5675C230.349 92.6438 230.46 92.5484 230.413 92.4531C229.514 90.5653 227.377 89.3893 225.473 89.3385C225.333 89.3385 225.292 89.5864 225.438 89.6118V89.6182Z" fill="#303030"/>
<path d="M230.267 125.525C229.497 125.29 229.216 125.36 229.216 125.36C229.216 125.36 225.479 131.754 219.605 131.608C213.73 131.468 213.865 125.474 213.865 125.474C213.865 125.474 213.269 125.652 212.475 125.964C212.674 127.47 213.619 132.199 217.777 133.032L218.822 136.585L220.259 133.032C220.259 133.032 227.511 132.352 230.267 125.525V125.525Z" fill="#FF8B7B"/>
<path d="M199.599 157.421C201.538 156.226 202.647 151.573 198.011 145.674C202.612 152.387 200.569 157.313 197.947 157.135C195.161 156.944 192.639 154.103 189.941 143.78C187.243 133.458 185.807 131.182 185.807 131.182C187.284 134.119 188.633 145.198 191.418 151.071C194.204 156.944 197.258 158.857 199.599 157.415V157.421Z" fill="#D37A85"/>
<path d="M207.798 260.4H187.961V263.94H207.798V260.4Z" fill="#CC9767"/>
<path d="M108.091 260.4H7.33864V263.94H108.091V260.4Z" fill="#CC9767"/>
<path d="M108.873 62H187.372C188.522 62 189.462 63.017 189.462 64.2756V263.94H106.783V64.2756C106.783 63.0234 107.717 62 108.873 62V62Z" fill="#CC9767"/>
<path d="M111.699 66.2651H184.68C185.404 66.2651 185.994 66.9071 185.994 67.6953V263.718H110.386V67.7016C110.386 66.9134 110.975 66.2714 111.699 66.2714V66.2651Z" fill="#E8BC8B"/>
<path d="M168.312 152.584C168.937 189.571 168.931 226.762 170.04 263.711H171.086C171.074 228.548 170 193.29 169.521 158.146C169.112 127.896 166.607 96.6355 167.623 66.2651H166.111C164.849 94.5697 167.845 124.667 168.312 152.584V152.584Z" fill="#DEB07C"/>
<path d="M165.626 263.718C164.832 198.006 163.88 131.748 161.398 66.2714H160.382C160.884 131.983 162.607 198.025 164.178 263.718H165.626Z" fill="#DEB07C"/>
<path d="M150.56 263.718H151.915C152.47 231.351 151.804 198.699 151.571 166.383C151.325 133.064 151.325 99.5785 150.531 66.2651H149.019C149.176 99.6294 149.912 133.019 150.157 166.383C150.397 198.75 149.971 231.332 150.56 263.718V263.718Z" fill="#DEB07C"/>
<path d="M138.385 263.718H139.845C140.943 197.847 140.19 131.945 137.398 66.2714H136.441C138.771 131.996 139.483 197.873 138.385 263.718V263.718Z" fill="#DEB07C"/>
<path d="M130.584 263.718H131.588C131.892 230.544 129.603 197.377 128.435 164.343C127.279 131.494 127.699 99.0255 128.47 66.2714H126.981C124.184 132.244 129.615 197.815 130.584 263.718V263.718Z" fill="#DEB07C"/>
<path d="M116.716 164.33C117.988 197.428 118.8 230.614 120.032 263.711H121.305C121.013 230.569 118.999 197.326 117.831 164.33C116.675 131.595 116.494 98.981 116.003 66.2651H114.438C113.79 98.803 115.472 132.104 116.716 164.33V164.33Z" fill="#DEB07C"/>
<path d="M177.112 169.047C177.316 200.835 179.284 232.146 180.54 263.711H182.093C181.661 251.164 180.604 238.648 179.997 226.164C179.074 207.178 178.613 188.109 178.443 169.047C178.145 134.723 179.354 100.532 179.681 66.2651H178.432C177.153 100.367 176.896 134.92 177.112 169.047V169.047Z" fill="#DEB07C"/>
<path d="M176.102 79.2637H120.278V164.248H176.102V79.2637Z" fill="#CC9767"/>
<path d="M132.727 126.784C132.242 110.963 132.266 95.0592 131.337 79.2637H130.648C130.596 94.3282 131.448 109.431 131.822 124.489C132.143 137.583 134.193 151.141 133.118 164.248H134.21C135.571 152.037 133.101 138.918 132.733 126.79L132.727 126.784Z" fill="#C78F63"/>
<path d="M134.712 79.2637C135.331 107.543 136.05 136.076 138.047 164.248H138.706C138.356 135.968 136.99 107.537 135.763 79.2637H134.712V79.2637Z" fill="#C78F63"/>
<path d="M145.988 79.2637H145.083C144.569 93.165 145.101 107.2 145.287 121.088C145.48 135.454 145.468 149.895 146.152 164.248H147.22C147.139 149.863 146.543 135.473 146.356 121.088C146.169 107.181 146.525 93.1714 145.994 79.2637H145.988Z" fill="#C78F63"/>
<path d="M155.232 79.2637H154.134C153.217 107.613 153.807 135.981 156.061 164.248H156.756C154.881 135.962 154.315 107.607 155.232 79.2637V79.2637Z" fill="#C78F63"/>
<path d="M160.995 79.2637H160.318C159.915 93.5082 161.737 107.746 162.648 121.934C163.559 136.108 163.168 150.105 162.543 164.248H163.588C166.064 135.848 161.608 107.632 160.995 79.2637V79.2637Z" fill="#C78F63"/>
<path d="M171.442 121.934C170.449 107.721 169.83 93.4701 168.843 79.2637H167.979C168.096 93.4892 169.696 107.765 170.607 121.934C171.518 136.057 171.623 150.13 172.032 164.248H173.077C173.754 150.238 172.417 135.841 171.448 121.934H171.442Z" fill="#C78F63"/>
<path d="M126.129 119.982C125.971 106.31 124.371 92.8472 123.442 79.2637H122.31C122.549 84.9908 123.466 90.6987 123.968 96.394C124.657 104.238 125.007 112.113 125.13 119.989C125.364 134.767 124.371 149.488 124.172 164.248H125.013C126.082 149.577 126.298 134.684 126.129 119.989V119.982Z" fill="#C78F63"/>
<path d="M176.102 186.8H120.278V255.416H176.102V186.8Z" fill="#CC9767"/>
<path d="M161.935 186.8H160.773C161.089 195.451 162.332 204.254 162.584 212.587C163.022 226.838 163.045 241.165 163.722 255.416H164.651C164.54 241.909 163.822 228.376 163.489 214.888C163.261 205.653 162.175 196.182 161.935 186.806V186.8Z" fill="#C78F63"/>
<path d="M156.808 186.8C157.299 209.657 158.35 232.578 159.349 255.416H160.499C159.991 232.584 159.366 209.6 158.023 186.8H156.808V186.8Z" fill="#C78F63"/>
<path d="M150.023 218.283C149.883 207.807 149.854 197.294 149.579 186.8H148.254C148.464 197.294 148.82 207.795 148.96 218.283C149.124 230.627 148.861 243.053 149.171 255.41H150.362C150.625 243.047 150.187 230.608 150.023 218.283V218.283Z" fill="#C78F63"/>
<path d="M140.085 186.8H139.255C140.476 209.651 140.826 232.533 140.219 255.416H141.317C141.924 232.533 141.539 209.638 140.09 186.8H140.085Z" fill="#C78F63"/>
<path d="M132.33 186.8H131.069C130.444 209.702 133.369 232.514 134.181 255.416H135.051C135.01 242.742 133.474 230.067 132.669 217.444C132.009 207.178 132.032 197.008 132.33 186.806V186.8Z" fill="#C78F63"/>
<path d="M123.577 186.8H122.088C122.269 197.046 123.168 207.369 123.869 217.437C124.756 230.087 125.34 242.761 126.158 255.416H127.244C126.87 242.748 125.515 230.048 124.704 217.437C124.044 207.21 123.81 197.008 123.577 186.8V186.8Z" fill="#C78F63"/>
<path d="M170.181 219.382C170.011 208.5 170.502 197.65 170.852 186.793H169.62C169.141 197.65 169.059 208.564 169.182 219.382C169.322 231.478 170.589 243.409 171.524 255.41H172.68C172.294 251.259 171.71 247.109 171.348 242.977C170.659 235.133 170.309 227.258 170.186 219.382H170.181Z" fill="#C78F63"/>
<path d="M120.278 79.2637V164.248H176.102V79.2637H120.278ZM173.982 161.642H122.397V81.8698H173.982V161.642Z" fill="#AD7A52"/>
<path d="M120.278 186.8V255.359H176.102V186.8H120.278V186.8ZM173.982 252.855H122.397V189.304H173.982V252.855Z" fill="#AD7A52"/>
<path d="M184.703 66.2651H111.676C110.964 66.2651 110.386 66.9198 110.386 67.727V263.718H112.155V69.6911C112.155 68.903 112.721 68.261 113.416 68.261H182.975C183.669 68.261 184.236 68.903 184.236 69.6911V263.718H186.005V67.727C186.005 66.9198 185.427 66.2651 184.715 66.2651H184.703Z" fill="#AD7A52"/>
<path d="M124.155 176.477C124.155 179.242 122.099 181.48 119.559 181.48C117.019 181.48 114.964 179.242 114.964 176.477C114.964 173.712 117.019 171.475 119.559 171.475C122.099 171.475 124.155 173.712 124.155 176.477Z" fill="#CC9767"/>
<path d="M124.155 175.378C124.155 178.143 122.099 180.38 119.559 180.38C117.019 180.38 114.964 178.143 114.964 175.378C114.964 172.613 117.019 170.375 119.559 170.375C122.099 170.375 124.155 172.613 124.155 175.378Z" fill="#F8E0CC"/>
<path d="M115.361 175.378C115.361 175.479 115.361 175.575 115.372 175.676C117.515 175.467 119.191 173.509 119.191 171.125C119.191 171.023 119.191 170.928 119.18 170.826C117.037 171.036 115.361 172.994 115.361 175.378Z" fill="#F8F7F5"/>
<path d="M130 179.503H119.46C118.456 179.503 117.638 178.613 117.638 177.52C117.638 176.426 118.456 175.536 119.46 175.536H130C131.004 175.536 131.822 176.426 131.822 177.52C131.822 178.613 131.004 179.503 130 179.503Z" fill="#CC9767"/>
<path d="M117.638 175.549V179.922C118.222 180.215 118.87 180.38 119.559 180.38C122.047 180.38 124.067 178.232 124.149 175.549H117.638Z" fill="#CFA893"/>
<path d="M130 177.361H119.46C118.456 177.361 117.638 176.471 117.638 175.378C117.638 174.284 118.456 173.394 119.46 173.394H130C131.004 173.394 131.822 174.284 131.822 175.378C131.822 176.471 131.004 177.361 130 177.361Z" fill="#F8E0CC"/>
<path d="M130 176.344H119.46C118.619 176.344 117.913 175.721 117.702 174.875C117.661 175.041 117.638 175.212 117.638 175.39C117.638 176.484 118.456 177.373 119.46 177.373H130C131.004 177.373 131.822 176.484 131.822 175.39C131.822 175.212 131.799 175.041 131.758 174.875C131.547 175.721 130.841 176.344 130 176.344Z" fill="#D7B49D"/>
<path d="M124.184 175.003H119.571C119.308 175.003 119.092 174.767 119.092 174.481C119.092 174.195 119.308 173.96 119.571 173.96H124.184C124.447 173.96 124.663 174.195 124.663 174.481C124.663 174.767 124.447 175.003 124.184 175.003Z" fill="#F8F7F5"/>
<path d="M126.666 175.003H125.673C125.41 175.003 125.194 174.767 125.194 174.481C125.194 174.195 125.41 173.96 125.673 173.96H126.666C126.929 173.96 127.145 174.195 127.145 174.481C127.145 174.767 126.929 175.003 126.666 175.003Z" fill="#F8F7F5"/>
<path d="M151.191 114.471C151.191 116.448 149.848 118.05 148.19 118.05C146.531 118.05 145.188 116.448 145.188 114.471C145.188 112.495 146.531 110.893 148.19 110.893C149.848 110.893 151.191 112.495 151.191 114.471Z" fill="#A3714E"/>
<path d="M151.191 113.295C151.191 115.101 149.848 116.563 148.19 116.563C146.531 116.563 145.188 115.101 145.188 113.295C145.188 111.49 146.531 110.028 148.19 110.028C149.848 110.028 151.191 111.49 151.191 113.295Z" fill="#F8E0CC"/>
<path d="M148.19 115.628C149.373 115.628 150.333 114.584 150.333 113.295C150.333 112.007 149.373 110.963 148.19 110.963C147.006 110.963 146.047 112.007 146.047 113.295C146.047 114.584 147.006 115.628 148.19 115.628Z" fill="#363344"/>
<path d="M148.19 114.993C149.051 114.993 149.749 114.233 149.749 113.295C149.749 112.358 149.051 111.598 148.19 111.598C147.329 111.598 146.63 112.358 146.63 113.295C146.63 114.233 147.329 114.993 148.19 114.993Z" fill="#626376"/>
<path d="M146.917 113.295C146.917 113.48 146.952 113.651 147.01 113.81C147.127 113.848 147.249 113.874 147.384 113.874C148.079 113.874 148.645 113.257 148.645 112.501C148.645 112.317 148.61 112.145 148.552 111.986C148.435 111.948 148.312 111.922 148.178 111.922C147.483 111.922 146.917 112.539 146.917 113.295Z" fill="#A5ADBC"/>
<path d="M98.0763 103.481H91.7348C90.9575 103.481 90.3275 104.167 90.3275 105.013V112.132C90.3275 112.978 90.9575 113.664 91.7348 113.664H98.0763C98.8535 113.664 99.4836 112.978 99.4836 112.132V105.013C99.4836 104.167 98.8535 103.481 98.0763 103.481Z" fill="#C5BBC7"/>
<path d="M97.65 103.481H91.6588C90.9236 103.481 90.3275 104.13 90.3275 104.931V111.694C90.3275 112.494 90.9236 113.143 91.6588 113.143H97.65C98.3853 113.143 98.9814 112.494 98.9814 111.694V104.931C98.9814 104.13 98.3853 103.481 97.65 103.481Z" fill="#E7DEE8"/>
<path d="M90.7421 105.255V109.526C91.1567 109.666 91.5946 109.736 92.0501 109.736C94.526 109.736 96.5289 107.549 96.5289 104.861C96.5289 104.549 96.4997 104.244 96.4471 103.945H91.945C91.2793 103.945 90.7421 104.53 90.7421 105.255Z" fill="#F6F0F7"/>
<path d="M96.9785 108.312C96.9785 109.71 95.9391 110.836 94.6603 110.836C93.3815 110.836 92.3421 109.704 92.3421 108.312C92.3421 106.92 93.3815 105.789 94.6603 105.789C95.9391 105.789 96.9785 106.92 96.9785 108.312Z" fill="#626376"/>
<path d="M96.342 108.312C96.342 109.329 95.5887 110.149 94.6544 110.149C93.7201 110.149 92.9669 109.329 92.9669 108.312C92.9669 107.295 93.7201 106.475 94.6544 106.475C95.5887 106.475 96.342 107.295 96.342 108.312Z" fill="#E7DEE8"/>
<path d="M93.2822 108.312C93.2822 108.509 93.3172 108.7 93.3815 108.871C93.5099 108.916 93.6442 108.935 93.7844 108.935C94.5376 108.935 95.1508 108.268 95.1508 107.448C95.1508 107.251 95.1157 107.06 95.0515 106.888C94.9231 106.844 94.7887 106.825 94.6486 106.825C93.8953 106.825 93.2822 107.492 93.2822 108.312Z" fill="white"/>
<path d="M204.206 270.868C204.206 273.15 179.01 275 147.927 275C116.844 275 91.6472 273.15 91.6472 270.868C91.6472 268.586 116.844 266.737 147.927 266.737C179.01 266.737 204.206 268.586 204.206 270.868Z" fill="#BF3054"/>
<path d="M147.927 273.366C178.164 273.366 202.677 271.935 202.677 270.169C202.677 268.403 178.164 266.972 147.927 266.972C117.689 266.972 93.1771 268.403 93.1771 270.169C93.1771 271.935 117.689 273.366 147.927 273.366Z" fill="#D94167"/>
<path d="M64.1438 144.079C64.1438 144.079 70.6489 152.819 74.5788 157.389C78.5086 161.959 87.0282 171.405 87.0282 171.405L81.0429 173.344C81.0429 173.344 72.7335 169.218 66.7891 163.358C60.4942 157.154 55.8753 149.577 55.8753 149.577L64.1497 144.085L64.1438 144.079Z" fill="#E89207"/>
<path d="M69.662 163.116C64.2431 157.777 60.8212 151.796 60.8212 151.796C64.0679 149.704 65.5686 147.34 66.0708 146.691C64.7686 144.975 64.1438 144.079 64.1438 144.079L55.8695 149.571C55.8695 149.571 60.4942 157.148 66.7832 163.351C72.7277 169.212 81.0371 173.337 81.0371 173.337L82.1407 172.981C79.8283 171.424 73.9247 167.324 69.6562 163.116H69.662Z" fill="#E89207"/>
<path d="M52.8972 148.821C52.8972 148.821 65.5803 143.939 63.8927 140.386C61.265 137.271 57.3585 127.006 53.9892 124.514C51.7702 122.626 45.9017 131.735 47.3907 138.295C48.617 143.704 52.8972 148.821 52.8972 148.821V148.821Z" fill="#E89207"/>
<path d="M52.2491 149.259C55.7585 147.346 61.6388 143.138 64.1964 139.763L67.1628 143.602C64.9088 146.564 59.9103 151.052 55.0636 153.251L52.2491 149.259Z" fill="#E89207"/>
<path d="M42.6141 85.8743C58.03 73.0536 63.5365 97.1822 63.5365 97.1822C63.5365 97.1822 63.8811 100.24 60.8154 101.142C59.595 101.504 51.998 104.708 51.998 104.708L43.6652 110.785C43.6652 110.785 38.9062 109.119 38.0069 100.513C37.1835 92.6056 39.274 85.6963 42.6141 85.8743V85.8743Z" fill="#212121"/>
<path d="M50.6316 116.474C49.6447 118.914 49.3469 121.896 49.4111 122.169C49.4111 122.169 47.7177 124.781 42.1353 124.514C38.7427 122.982 35.6887 119.684 35.6887 119.684C36.7631 119.264 39.4434 118.616 41.2244 114.808C42.7309 111.579 42.62 105.897 42.62 105.897L46.1586 107.397L50.6374 116.474H50.6316Z" fill="#D27A84"/>
<path d="M43.7119 99.9853C44.2375 100.678 44.0681 102.363 45.1017 102.477C46.3805 102.617 46.0769 97.6208 48.5528 94.004C49.5338 92.5675 52.0505 90.3047 56.0563 91.4551C61.0548 92.8917 61.5745 96.019 61.6037 99.0573C61.6212 100.475 61.4227 103.424 59.5775 108.433C57.376 114.401 54.3045 117.758 51.9746 117.916C50.4155 118.018 49.1659 117.516 48.0155 116.493C46.0418 114.745 43.8579 111.903 43.2798 106.373C40.6755 105.871 39.8521 103.558 40.2667 101.759C40.693 99.9027 42.2054 98.517 43.7178 99.9917L43.7119 99.9853Z" fill="url(#paint8_linear_4_1937)"/>
<path d="M43.5192 102.699C43.5893 103.71 43.1455 104.568 42.5266 104.619C41.9076 104.67 41.347 103.894 41.2769 102.884C41.2069 101.873 41.6506 101.015 42.2696 100.964C42.8886 100.913 43.4492 101.689 43.5192 102.699V102.699Z" fill="#D27A84"/>
<path d="M58.4972 100.341C58.8767 99.445 60.1147 99.8328 61.1307 100.57C61.9599 101.168 62.2869 102.655 61.9015 102.973C61.3351 103.443 61.2358 102.776 60.2782 102.166C59.1745 101.46 58.1118 101.257 58.4972 100.341V100.341Z" fill="#212121"/>
<path d="M54.5323 98.7013C54.5031 97.8877 53.5337 97.6462 51.5016 97.9259C49.744 98.1674 48.2433 99.356 48.5411 99.9726C48.8564 100.615 49.8666 100.17 51.6418 99.8391C52.9673 99.5912 54.5673 99.8264 54.5264 98.7077L54.5323 98.7013Z" fill="#212121"/>
<path d="M57.4052 100.354C56.9439 101.009 56.5235 101.663 56.2432 102.369C56.0972 102.725 55.9746 103.087 55.9103 103.462C55.8578 103.647 55.8403 103.831 55.8228 104.022C55.8111 104.212 55.7702 104.397 55.7936 104.581C55.776 105.331 55.9279 106.068 56.2082 106.748C56.3541 107.085 56.5176 107.416 56.7103 107.721C56.8096 107.874 56.9089 108.026 57.0198 108.166C57.1191 108.312 57.2592 108.439 57.3351 108.566L57.6096 109.056L57.3935 109.316C57.2359 109.507 57.1191 109.583 56.9789 109.698C56.8388 109.793 56.6987 109.882 56.5527 109.946C56.2607 110.085 55.9571 110.162 55.6534 110.194C55.0461 110.244 54.4739 110.124 53.96 109.901C53.9191 109.882 53.9016 109.838 53.9191 109.793C53.9308 109.755 53.9658 109.736 54.0009 109.742C54.5381 109.799 55.0695 109.742 55.5249 109.552C55.7527 109.45 55.9571 109.323 56.1381 109.164C56.2257 109.088 56.3074 108.999 56.3775 108.91C56.4417 108.827 56.5235 108.706 56.5293 108.655L56.5935 109.399C56.4067 109.234 56.3074 109.049 56.1848 108.871C56.068 108.693 55.9571 108.509 55.8578 108.318C55.6534 107.943 55.4841 107.543 55.3381 107.13C55.0636 106.303 54.9352 105.407 55.0228 104.536C55.0228 104.314 55.087 104.104 55.1279 103.888C55.1687 103.672 55.2096 103.462 55.2914 103.265C55.414 102.852 55.5833 102.471 55.7819 102.102C55.9571 101.721 56.2315 101.403 56.4476 101.06C56.6987 100.754 56.9673 100.475 57.23 100.182C57.2768 100.132 57.3527 100.125 57.3994 100.176C57.4461 100.221 57.4519 100.303 57.4111 100.354H57.4052Z" fill="#D27A84"/>
<path d="M49.5922 101.384C49.5922 101.384 49.7265 101.759 50.0068 102.197C50.2579 102.655 50.7075 103.094 51.2272 103.31C51.3498 103.367 51.5133 103.405 51.6184 103.437C51.817 103.488 51.8637 103.481 51.998 103.488C52.2316 103.488 52.471 103.45 52.6812 103.348C53.0899 103.144 53.3994 102.877 53.3994 102.877C53.3994 102.877 53.4053 102.985 53.3527 103.157C53.3002 103.322 53.2242 103.589 53.0082 103.818C52.8155 104.066 52.4885 104.32 52.0797 104.384C51.8929 104.435 51.6067 104.397 51.4724 104.378C51.2505 104.339 51.0812 104.269 50.8885 104.174C50.5148 104.003 50.1878 103.697 49.9659 103.373C49.7557 103.03 49.6447 102.68 49.5747 102.382C49.4754 101.771 49.5922 101.384 49.5922 101.384V101.384Z" fill="#634A64"/>
<path d="M57.3585 103.933C57.3585 103.933 57.5512 104.193 57.8198 104.498C58.0826 104.816 58.4446 105.128 58.8067 105.261C58.8767 105.299 59.011 105.331 59.122 105.35C59.1921 105.356 59.2855 105.382 59.3731 105.382C59.5366 105.375 59.7118 105.356 59.8577 105.248C60.1614 105.058 60.3658 104.784 60.3658 104.784C60.3658 104.784 60.4709 105.128 60.2315 105.611C60.103 105.833 59.8636 106.113 59.5249 106.208C59.3614 106.253 59.1862 106.284 58.9935 106.259C58.8359 106.24 58.7016 106.221 58.5205 106.151C58.1935 106.017 57.9132 105.782 57.7322 105.515C57.5454 105.255 57.4578 104.962 57.3935 104.727C57.2884 104.244 57.3702 103.914 57.3702 103.914L57.3585 103.933Z" fill="#634A64"/>
<path d="M44.6754 261.747C45.2652 264.042 43.7995 265.707 44.29 267.372C44.8565 269.292 57.0957 268.841 57.2592 267.639C57.5862 265.243 50.3513 264.944 49.3995 263.056C48.7338 261.734 49.0024 260.419 49.0024 260.419L44.6696 261.753L44.6754 261.747Z" fill="#363344"/>
<path d="M6.889 261.747C6.97075 264.042 5.13135 265.707 5.25398 267.372C5.39412 269.292 17.7327 268.841 18.1648 267.639C19.029 265.243 11.8583 264.944 11.3269 263.056C10.959 261.734 11.5196 260.419 11.5196 260.419L6.889 261.753V261.747Z" fill="#363344"/>
<path d="M37.2361 117.408C37.2361 117.408 29.9953 119.175 27.9223 120.103C21.6626 122.893 19.6421 131.106 15.7356 142.979C12.1386 153.912 10.4919 162.582 12.0101 165.474C13.6685 168.633 38.0945 174.062 44.8331 167.756C48.3367 164.476 49.8666 155.8 51.8345 150.162C53.8023 144.524 58.4329 131.983 56.0972 127.19C54.6607 124.241 51.233 121.743 51.233 121.743L45.8667 123.11L37.2361 117.402V117.408Z" fill="#FFA70B"/>
<path d="M35.8463 168.831L35.1631 168.551C38.6667 158.298 42.9528 140.856 42.9995 140.685C44.7163 133.636 44.7397 126.777 44.7397 126.714H45.4696C45.4696 126.784 45.4521 133.737 43.7061 140.888C43.6652 141.06 39.3675 158.546 35.8463 168.831Z" fill="#E89207"/>
<path d="M22.1881 125.709C19.8115 129.828 18.1239 135.721 15.7356 142.986C12.1386 153.919 10.3167 163.154 12.0101 165.481C14.0889 168.328 38.0945 174.068 44.8331 167.763C46.398 166.301 47.5659 163.765 48.5586 160.898C29.7033 151.713 23.5954 131.513 22.1939 125.709H22.1881Z" fill="#FFA70B"/>
<path d="M35.8463 168.831L35.1631 168.551C36.3252 165.163 37.7033 160.586 39.2565 154.955L39.9572 155.184C38.3923 160.828 37.0142 165.424 35.8463 168.824V168.831Z" fill="#E89207"/>
<path d="M37.5806 117.294L36.9091 117.516L41.5163 128.837L43.9864 126.37L44.8389 127.75L46.2871 126.472L47.5951 129.911L51.4024 121.857L51.1104 121.648L45.9718 122.817L37.5806 117.294Z" fill="#E89207"/>
<path d="M40.7572 114.529L45.9718 122.817L41.9076 126.898L37.3179 116.779L40.7572 114.529Z" fill="#E7DEE8"/>
<path d="M45.9718 122.817L48.0739 128.125L51.414 121.387L49.9484 118.215L45.9718 122.817Z" fill="#E7DEE8"/>
<path d="M44.3893 170.242C44.3893 170.242 51.7002 202.691 52.9148 213.356C54.1293 224.061 53.6564 238.013 54.0359 243.492C54.4155 248.971 54.3396 253.865 53.9834 256.376C53.6272 258.887 51.0929 261.563 47.6944 262.383C44.2959 263.203 41.2653 261.639 40.2667 258.588C39.2624 255.537 39.2098 227.9 38.6434 221.912C38.077 215.924 29.6508 192.927 29.6508 192.927L30.2464 171.602L44.3951 170.235L44.3893 170.242Z" fill="#474557"/>
<path d="M11.2919 169.377C11.2919 169.377 10.4802 176.134 10.3517 185.796C10.2174 195.762 12.2378 212.46 11.5196 218.289C10.7955 224.111 3.5197 250.7 3.68904 254.666C3.85838 258.632 4.9153 261.321 7.15761 262.249C9.3824 263.165 14.1823 263.514 16.5356 258.753C18.1356 255.518 24.8333 228.885 26.7136 219.598C27.4377 216.026 31.7997 188.535 31.7997 188.535L34.4215 186.933L33.8318 171.742L11.2919 169.377V169.377Z" fill="#626376"/>
<path d="M44.8681 171.214C34.5325 174.017 21.9487 173.127 11.2919 169.377L12.0101 165.481C22.8713 169.212 35.1223 170.178 45.0608 167.419L44.874 171.214H44.8681Z" fill="#363344"/>
<path d="M27.2141 168.256L25.6258 168.108C25.1888 168.067 24.8041 168.419 24.7667 168.895L24.435 173.107C24.3975 173.582 24.7214 174.001 25.1584 174.042L26.7467 174.19C27.1837 174.231 27.5683 173.878 27.6058 173.403L27.9375 169.191C27.9749 168.715 27.6511 168.297 27.2141 168.256Z" fill="#626376"/>
<path d="M40.6443 168.001L42.352 167.809C42.7527 167.764 43.1174 168.081 43.1594 168.524L43.549 172.627C43.5904 173.063 43.2994 173.46 42.8928 173.506L41.1851 173.698C40.7843 173.743 40.4196 173.426 40.3776 172.984L39.988 168.88C39.9466 168.444 40.2377 168.047 40.6443 168.001V168.001Z" fill="#474557"/>
<path d="M15.8781 166.398L17.3479 166.758C17.798 166.869 18.0862 167.356 17.9837 167.852L17.2121 171.586C17.1108 172.075 16.6629 172.389 16.2071 172.278L14.7373 171.918C14.2873 171.807 13.999 171.32 14.1016 170.824L14.8732 167.091C14.9744 166.601 15.4224 166.287 15.8781 166.398V166.398Z" fill="#626376"/>
<path d="M54.7074 143.704L48.6754 142.833L49.5221 139.14L55.5541 140.011L54.7074 143.704Z" fill="#E7DEE8"/>
<path d="M79.0458 181.619L94.4909 181.677C95.1099 181.677 95.6179 181.162 95.6179 180.526L95.7756 144.702C95.7756 144.066 95.2792 143.545 94.6544 143.545L79.2093 143.488C78.5904 143.488 78.0824 144.003 78.0824 144.638L77.9247 180.463C77.9247 181.098 78.421 181.619 79.0458 181.619V181.619Z" fill="#EFBA73"/>
<path d="M80.7509 181.626L53.1075 181.518C52.4943 181.518 52.0038 181.003 52.0038 180.374L52.1556 144.511C52.1556 143.882 52.6578 143.374 53.2651 143.38L80.9086 143.488C81.5217 143.488 82.0122 144.003 82.0122 144.632L81.8604 180.494C81.8604 181.124 81.3582 181.632 80.7509 181.626V181.626Z" fill="#FFD68D"/>
<path d="M79.6181 145.986C79.6181 145.986 79.2444 146.539 78.5845 147.505C77.913 148.459 76.9787 149.851 75.805 151.465C74.6313 153.08 73.2824 154.986 71.7992 156.989C70.3218 158.997 68.7102 161.114 67.1102 163.231C65.4869 165.335 63.8694 167.438 62.3219 169.39C60.7862 171.348 59.303 173.134 58.0592 174.685C56.8154 176.236 55.7235 177.481 54.9877 178.378C54.2344 179.255 53.8023 179.757 53.8023 179.757C53.8023 179.757 54.176 179.204 54.8359 178.238C55.5074 177.284 56.4359 175.892 57.6154 174.278C58.7891 172.663 60.1322 170.756 61.6212 168.754C63.0986 166.746 64.7102 164.629 66.3161 162.512C67.9394 160.408 69.5569 158.304 71.1043 156.359C72.6401 154.402 74.1233 152.616 75.367 151.065C76.6167 149.514 77.7028 148.268 78.4385 147.372C79.1918 146.494 79.6239 145.992 79.6239 145.992L79.6181 145.986Z" fill="#EFBA73"/>
<path d="M53.6388 144.918C53.6388 144.918 54.0885 145.439 54.8709 146.355C55.6359 147.283 56.7687 148.579 58.0651 150.187C59.3614 151.796 60.903 153.645 62.4971 155.679C64.0913 157.713 65.7905 159.887 67.4898 162.055C69.154 164.26 70.8182 166.46 72.3773 168.532C73.9422 170.598 75.3379 172.581 76.5641 174.246C77.7904 175.918 78.7597 177.361 79.4663 178.346C80.1495 179.35 80.5466 179.922 80.5466 179.922C80.5466 179.922 80.0969 179.401 79.3144 178.492C78.5495 177.564 77.4167 176.267 76.1203 174.659C74.824 173.051 73.2824 171.201 71.6883 169.167C70.0941 167.133 68.3949 164.96 66.6956 162.792C65.0314 160.586 63.3672 158.381 61.8081 156.315C60.249 154.249 58.8534 152.266 57.6213 150.601C56.395 148.929 55.4257 147.486 54.7191 146.501C54.0359 145.497 53.6388 144.924 53.6388 144.924V144.918Z" fill="#EFBA73"/>
<path d="M94.6428 145.986C94.6428 145.986 94.5026 146.526 94.2574 147.473C93.9946 148.414 93.6559 149.768 93.1771 151.37C92.6983 152.972 92.1727 154.847 91.5479 156.836C90.9348 158.832 90.2457 160.942 89.5625 163.059C88.856 165.163 88.1552 167.273 87.4604 169.237C86.7772 171.201 86.0823 173.019 85.5217 174.583C84.9553 176.147 84.4239 177.431 84.0794 178.34C83.7115 179.242 83.5071 179.751 83.5071 179.751C83.5071 179.751 83.6473 179.21 83.8925 178.263C84.1553 177.323 84.494 175.969 84.9728 174.367C85.4516 172.765 85.9772 170.89 86.602 168.9C87.2151 166.905 87.9041 164.794 88.5874 162.678C89.2939 160.574 90.0005 158.463 90.6954 156.499C91.3786 154.535 92.0734 152.717 92.634 151.154C93.2004 149.59 93.7318 148.306 94.0763 147.397C94.4442 146.494 94.6486 145.986 94.6486 145.986H94.6428Z" fill="#E2A561"/>
<path d="M83.4312 144.918C83.4312 144.918 83.6473 145.452 84.0268 146.386C84.383 147.327 84.9319 148.656 85.5217 150.283C86.1115 151.904 86.8239 153.791 87.5363 155.826C88.2603 157.86 88.9903 160.046 89.726 162.226C90.4443 164.419 91.1625 166.606 91.799 168.678C92.4472 170.737 93.0019 172.689 93.5041 174.348C94.0063 176.007 94.3625 177.412 94.6369 178.384C94.8938 179.363 95.0398 179.929 95.0398 179.929C95.0398 179.929 94.8238 179.395 94.4442 178.46C94.088 177.52 93.5391 176.191 92.9493 174.564C92.3596 172.943 91.6413 171.062 90.9348 169.021C90.2107 166.987 89.4808 164.801 88.745 162.62C88.0326 160.427 87.3144 158.241 86.672 156.169C86.0239 154.103 85.4691 152.158 84.9669 150.499C84.4648 148.84 84.1086 147.435 83.8341 146.463C83.5772 145.484 83.4312 144.918 83.4312 144.918Z" fill="#E2A561"/>
<path d="M91.8457 148.293H86.0531L86.0706 143.494L91.8691 143.52L91.8457 148.293Z" fill="#D6985B"/>
<path d="M79.8809 146.278H67.6007V154.395H79.8809V146.278Z" fill="#EFBA73"/>
<path d="M79.478 146.278H67.6007V154.008H79.478V146.278Z" fill="#F8F7F5"/>
<path d="M69.008 147.429H68.1671V152.851H69.008V147.429Z" fill="#D4C8D6"/>
<path d="M72.1262 147.429H71.2854V152.851H72.1262V147.429Z" fill="#D4C8D6"/>
<path d="M70.9817 147.429H70.3511V152.851H70.9817V147.429Z" fill="#D4C8D6"/>
<path d="M69.8372 147.429H69.4168V152.851H69.8372V147.429Z" fill="#D4C8D6"/>
<path d="M72.8678 147.429H72.6167V152.851H72.8678V147.429Z" fill="#D4C8D6"/>
<path d="M74.205 147.429H73.3642V152.851H74.205V147.429Z" fill="#D4C8D6"/>
<path d="M78.9174 147.429H75.0109V148.115H78.9174V147.429Z" fill="#D4C8D6"/>
<path d="M78.9174 148.408H75.0109V149.094H78.9174V148.408Z" fill="#D4C8D6"/>
<path d="M78.9174 149.921H75.0109V150.162H78.9174V149.921Z" fill="#D4C8D6"/>
<path d="M78.9174 150.817H75.0109V151.058H78.9174V150.817Z" fill="#D4C8D6"/>
<path d="M78.9174 151.713H75.0109V151.955H78.9174V151.713Z" fill="#D4C8D6"/>
<path d="M78.9174 152.609H75.0109V152.851H78.9174V152.609Z" fill="#D4C8D6"/>
<path d="M68.4124 159.061C69.3934 159.697 69.1949 160.269 68.2839 161.406C67.373 162.544 66.7891 163.351 66.7891 163.351C66.7891 163.351 74.3452 162.951 74.7714 163.815C75.1977 164.673 74.678 165.951 72.3306 166.097C72.3306 166.097 74.8824 165.792 75.2036 166.58C75.5247 167.369 74.6138 169.009 70.8299 168.939C70.8299 168.939 72.6167 168.78 72.7977 169.32C72.9788 169.86 72.6985 171.208 68.6985 170.973C64.3307 170.712 61.4344 168.157 61.4344 168.157L66.065 161.832L68.4124 159.061V159.061Z" fill="#EFBA73"/>
<path d="M38.3631 142.299C39.531 145.427 43.3032 150.702 47.0754 153.931C51.7819 157.955 55.2563 161.495 61.7789 162.398L61.3526 168.004C61.3526 168.004 49.779 167.362 40.5178 161.063C32.6172 155.686 28.5763 147.181 28.5763 147.181L38.3631 142.293V142.299Z" fill="url(#paint9_linear_4_1937)"/>
<path d="M59.8694 167.864L59.6826 162.042C59.6359 162.029 59.5015 161.966 59.449 161.953C58.1643 162.964 57.4461 166.269 57.4461 166.269C57.4461 166.269 47.3148 164.877 41.3879 160.58C35.4609 156.277 31.9807 149.927 31.9807 149.927C36.0098 148.134 39.1397 145.363 39.6361 144.905C39.0813 143.952 38.6434 143.062 38.3573 142.299L28.5705 147.187C28.5705 147.187 32.6113 155.692 40.512 161.069C47.7703 166.008 56.4476 167.47 59.8636 167.871L59.8694 167.864Z" fill="#D27A84"/>
<path d="M25.8844 144.746L38.0945 138.155C36.2668 134.837 32.6581 119.239 25.7851 122.067C18.9064 124.889 21.6684 137.221 25.8844 144.746V144.746Z" fill="#E89207"/>
<path d="M25.0727 144.842C29.9778 141.931 34.7661 139.553 38.5792 137.723L40.6988 142.198C37.7616 144.746 32.7982 147.251 27.2275 149.336L25.0727 144.842V144.842Z" fill="#E7DEE8"/>
<path d="M59.7877 161.425C61.0256 161.94 62.246 162.112 62.5614 162.067C64.9613 161.61 67.8051 158.432 68.4124 159.061C69.3117 160.37 66.1234 162.379 66.246 162.735C66.3628 163.091 68.4416 163.154 70.0649 163.237C71.5131 163.307 74.532 162.767 74.7715 163.809C75.0109 164.858 71.6124 165.176 70.4445 165.271C69.2766 165.366 68.1321 165.322 67.9336 165.576C67.735 165.83 69.1832 165.856 70.6722 165.919C71.8518 165.97 75.1335 165.506 75.1977 166.58C75.2503 167.496 73.2941 167.833 70.7657 167.877C68.9671 167.909 67.9277 167.991 67.9161 168.227C67.9044 168.462 68.8795 168.602 69.9773 168.608C71.081 168.614 72.7394 168.684 72.7919 169.314C72.8445 169.949 71.1861 170.146 69.6912 170.057C68.1963 169.968 64.611 169.981 61.2709 168.443C61.2709 168.443 60.6461 168.1 58.0359 167.915C58.0359 167.915 58.1118 163.593 59.7818 161.419L59.7877 161.425Z" fill="#FFA70B"/>
<path d="M59.5132 84.9272C56.103 81.4058 45.4579 80.1536 40.4769 86.2938C38.7602 88.4168 38.0244 91.1882 37.7441 93.6799C39.3791 94.824 39.9164 97.0996 39.9164 97.0996L37.6332 97.8115C37.6974 99.0764 37.8317 99.8836 37.8317 99.8836C57.1366 93.4701 63.9278 96.2287 63.9278 96.2287C63.9278 96.2287 62.6081 88.1181 59.5132 84.9272V84.9272Z" fill="#E89207"/>
<path d="M38.0303 93.8705C38.0303 93.8705 36.5471 96.5084 36.8857 98.892L37.6332 97.8115L39.1397 97.3157L38.0303 93.8705V93.8705Z" fill="#212121"/>
<path d="M50.2871 96.2351C50.2871 96.2351 54.9644 99.7056 57.2884 100.386C61.7964 101.695 67.735 101.307 68.6226 100.468C69.5102 99.6357 63.9219 96.2287 63.9219 96.2287C63.9219 96.2287 61.3468 94.5062 50.2871 96.2351V96.2351Z" fill="#E89207"/>
<path d="M52.1031 94.8939L63.7409 95.2499C63.2854 92.9997 61.9424 87.4316 59.5132 84.9209C57.7439 83.0966 54.0242 81.8762 50.1586 81.9906C50.6082 82.0033 56.6052 81.9906 57.9074 86.6752C59.5249 92.4785 52.1031 94.8876 52.1031 94.8876V94.8939Z" fill="#FFA70B"/>
<path d="M11.0583 172.212L17.7152 173.973C17.7152 173.973 14.8656 178.467 10.5561 179.789L11.0641 172.212H11.0583Z" fill="#474557"/>
<path d="M45.0316 173.337L42.4039 173.922C42.4039 173.922 44.0857 176.998 46.3105 178.905L45.0316 173.331V173.337Z" fill="#3F3E4F"/>
<path d="M63.9219 96.2224C63.9219 96.2224 63.7993 95.4787 63.5482 94.3536C53.0899 92.2497 39.9105 97.0868 39.9105 97.0868L37.6273 97.7987C37.6916 99.0637 37.8259 99.8709 37.8259 99.8709C57.1308 93.4574 63.9219 96.216 63.9219 96.216V96.2224Z" fill="#FFA70B"/>
<path d="M57.4636 99.623C55.7527 99.1272 52.7571 97.1059 51.3031 96.0762C50.9703 96.1207 50.6374 96.1715 50.2871 96.2287C50.2871 96.2287 54.9644 99.6993 57.2884 100.379C61.7964 101.689 67.735 101.301 68.6226 100.462C68.7744 100.322 68.7394 100.106 68.5817 99.8518C67.192 100.583 61.703 100.856 57.4636 99.623V99.623Z" fill="#E89207"/>
<path d="M10.3459 185.796C10.2116 195.762 12.232 212.46 11.5138 218.289C10.7955 224.111 3.5197 250.7 3.68904 254.666C3.85838 258.632 4.9153 261.321 7.15761 262.249C7.34447 262.326 7.54301 262.395 7.75906 262.465C5.91967 261.366 4.22042 258.378 4.48319 254.495C4.9445 247.598 13.359 225.986 13.7911 219.071C14.0422 215.104 10.8714 191.726 10.3984 183.069C10.3751 183.946 10.3576 184.855 10.3401 185.796H10.3459Z" fill="#474557"/>
<path d="M34.8303 168.112C33.1778 168.112 31.8347 169.466 31.8347 171.132C31.8347 172.797 33.1778 174.151 34.8303 174.151C36.4828 174.151 37.8259 172.797 37.8259 171.132C37.8259 169.466 36.4828 168.112 34.8303 168.112ZM34.8303 172.867C33.8843 172.867 33.1135 172.091 33.1135 171.138C33.1135 170.184 33.8843 169.409 34.8303 169.409C35.7763 169.409 36.5471 170.184 36.5471 171.138C36.5471 172.091 35.7763 172.867 34.8303 172.867Z" fill="#A5ADBC"/>
<path d="M50.3454 110.994C50.3454 110.994 53.0023 112.304 56.9789 112.164C56.9789 112.164 55.6476 114.904 53.1016 114.408C50.8651 113.969 50.3454 111.001 50.3454 111.001V110.994Z" fill="#4B3C59"/>
<path d="M51.4024 111.795C51.4024 111.795 53.4286 112.634 56.2198 112.533C56.2198 112.533 55.3498 114.103 53.306 113.798C51.6243 113.55 51.4082 111.795 51.4082 111.795H51.4024Z" fill="#FFF4E9"/>
</g>
<defs>
<linearGradient id="paint0_linear_4_1937" x1="254.01" y1="183.278" x2="237.882" y2="157.499" gradientUnits="userSpaceOnUse">
<stop stop-color="#FF9595"/>
<stop offset="0.13" stop-color="#FFA29C"/>
<stop offset="0.33" stop-color="#FFB1A4"/>
<stop offset="0.5" stop-color="#FFB7A7"/>
<stop offset="0.67" stop-color="#FFB0A3"/>
<stop offset="0.91" stop-color="#FF9D99"/>
<stop offset="1" stop-color="#FF9595"/>
</linearGradient>
<linearGradient id="paint1_linear_4_1937" x1="212.592" y1="264.232" x2="210.801" y2="254.085" gradientUnits="userSpaceOnUse">
<stop stop-color="#FFB7A7"/>
<stop offset="1" stop-color="#FF9595"/>
</linearGradient>
<linearGradient id="paint2_linear_4_1937" x1="221.438" y1="264.182" x2="219.634" y2="253.971" gradientUnits="userSpaceOnUse">
<stop stop-color="#FFB7A7"/>
<stop offset="1" stop-color="#FF9595"/>
</linearGradient>
<linearGradient id="paint3_linear_4_1937" x1="252.691" y1="183.806" x2="237.766" y2="159.94" gradientUnits="userSpaceOnUse">
<stop stop-color="#FF9595"/>
<stop offset="0.13" stop-color="#FFA29C"/>
<stop offset="0.33" stop-color="#FFB1A4"/>
<stop offset="0.5" stop-color="#FFB7A7"/>
<stop offset="0.67" stop-color="#FFB0A3"/>
<stop offset="0.91" stop-color="#FF9D99"/>
<stop offset="1" stop-color="#FF9595"/>
</linearGradient>
<linearGradient id="paint4_linear_4_1937" x1="221.438" y1="131.042" x2="221.438" y2="115.094" gradientUnits="userSpaceOnUse">
<stop stop-color="#FFB7A7"/>
<stop offset="1" stop-color="#FF9595"/>
</linearGradient>
<linearGradient id="paint5_linear_4_1937" x1="216.394" y1="121.758" x2="226.457" y2="91.6893" gradientUnits="userSpaceOnUse">
<stop stop-color="#FFB7A7"/>
<stop offset="1" stop-color="#FF9595"/>
</linearGradient>
<linearGradient id="paint6_linear_4_1937" x1="184.744" y1="127.839" x2="202.166" y2="157.669" gradientUnits="userSpaceOnUse">
<stop stop-color="#FFB7A7"/>
<stop offset="1" stop-color="#FF9595"/>
</linearGradient>
<linearGradient id="paint7_linear_4_1937" x1="256.183" y1="183.514" x2="236.629" y2="156.824" gradientUnits="userSpaceOnUse">
<stop stop-color="#FF9595"/>
<stop offset="0.13" stop-color="#FFA29C"/>
<stop offset="0.33" stop-color="#FFB1A4"/>
<stop offset="0.5" stop-color="#FFB7A7"/>
<stop offset="0.67" stop-color="#FFB0A3"/>
<stop offset="0.91" stop-color="#FF9D99"/>
<stop offset="1" stop-color="#FF9595"/>
</linearGradient>
<linearGradient id="paint8_linear_4_1937" x1="47.8427" y1="118.338" x2="56.6204" y2="77.338" gradientUnits="userSpaceOnUse">
<stop stop-color="#FFB7A7"/>
<stop offset="1" stop-color="#FF9595"/>
</linearGradient>
<linearGradient id="paint9_linear_4_1937" x1="47.5075" y1="171.487" x2="40.1143" y2="126.811" gradientUnits="userSpaceOnUse">
<stop stop-color="#FFB7A7"/>
<stop offset="1" stop-color="#FF9595"/>
</linearGradient>
<clipPath id="clip0_4_1937">
<rect width="257.311" height="213" fill="white" transform="translate(3.68904 62)"/>
</clipPath>
</defs>
</svg>
